<?xml version="1.0" encoding="UTF-8"?>
<!-- Generated by Pixelmator Pro 3.7 -->
<svg width="1603" height="980" viewBox="0 0 1603 980" xmlns="http://www.w3.org/2000/svg">
    <path id="Rectangle-arrondi" fill="#273e47" fill-rule="evenodd" stroke="none" d="M 0 890 C 0 939.705627 40.294373 980 90 980 L 1513 980 C 1562.705688 980 1603 939.705627 1603 890 L 1603 90 C 1603 40.294373 1562.705688 0 1513 0 L 90 0 C 40.294373 0 0 40.294373 0 90 Z"/>
    <path id="Trac" fill="#ffffff" fill-rule="evenodd" stroke="none" d="M 436 864 C 436 902.107666 466.892365 933 505 933 L 1489 933 C 1527.107666 933 1558 902.107666 1558 864 L 1558 116 C 1558 77.892334 1527.107666 47 1489 47 L 505 47 C 466.892365 47 436 77.892334 436 116 Z"/>
    <text id="text1" xml:space="preserve" x="693.640381" y="719" font-family="Zapf Dingbats" font-size="717" fill="#273e47">✔︎</text>
</svg>
